<svg xmlns="http://www.w3.org/2000/svg" width="91" height="32" viewBox="0 0 91 32">
  <g fill="#FA6C56" fill-rule="evenodd">
    <path d="M64.9808101 16.8418055C65.0923871 17.2181814 65.2916317 17.5653721 65.578544 17.8833778 65.9973506 18.3474213 66.6479544 18.5793308 67.5306923 18.5793308 68.1871331 18.5793308 68.6793515 18.4322827 69.007572 18.1380741 69.3357924 17.8437534 69.4997904 17.5043079 69.4997904 17.1195132 69.4997904 16.80263 69.3810294 16.5253713 69.1433951 16.287737 68.9056485 16.0501028 68.4700044 15.8633179 67.8362381 15.7276071L65.9011519 15.2862382C64.9957394 15.0825035 64.2262623 14.8108573 63.592496 14.4714119 62.9587298 14.1318541 62.4382242 13.7358344 62.030755 13.2831282 61.6233979 12.8304219 61.3290771 12.3324788 61.1480171 11.7892986 60.9669571 11.2461185 60.8764832 10.6802638 60.8764832 10.0918467 60.8764832 9.32225734 61.0348686 8.59801717 61.3517517 7.91901395 61.6686349 7.24001073 62.1156163 6.64586889 62.6928084 6.13658841 63.2700004 5.62730793 63.9546161 5.22556342 64.7467678 4.93135489 65.5389196 4.63714635 66.4103201 4.48998596 67.3609695 4.48998596 68.5831529 4.48998596 69.6129389 4.6597087 70.4504398 4.99926644 71.2878284 5.33871192 71.9725564 5.76313103 72.5043993 6.2724115 73.0363543 6.78169198 73.4267615 7.3248721 73.6757331 7.90206413 73.8299653 8.25969419 73.9478283 8.61373224 74.0212401 8.92926837 74.0945397 9.2448045 73.8873253 9.55663636 73.5804325 9.61264936 72.1863936 9.86712122 71.120463 10.0616513 70.3825282 10.1963519 70.1643133 10.2362008 69.8488894 10.1490945 69.7236179 9.76542228 69.6105816 9.41969076 69.4285113 9.10976716 69.1772947 8.83565146 68.8038373 8.42829443 68.2210328 8.22455979 67.4288811 8.22455979 66.9309379 8.22455979 66.5009063 8.35465811 66.1387862 8.614967 65.7766661 8.87527588 65.5954938 9.23167119 65.5954938 9.68437742 65.5954938 10.0464975 65.7199796 10.329481 65.9689512 10.5332156 66.2179228 10.736838 66.5348059 10.8726611 66.9196006 10.9405727L69.1603449 11.3819416C70.9257084 11.7440617 72.2328653 12.4061151 73.0815913 13.3679895 73.9303173 14.3299762 74.3547364 15.4332863 74.3547364 16.6781443 74.3547364 17.4023844 74.2189133 18.1040622 73.9472671 18.7830655 73.6757331 19.4620687 73.2570388 20.0675478 72.6911841 20.5993906 72.1253294 21.1313457 71.4236515 21.5613774 70.5862629 21.8894855 69.748762 22.217706 68.7642129 22.3818162 67.6326157 22.3818162 66.2971716 22.3818162 65.1825242 22.1950314 64.2884491 21.821574 63.3944862 21.4481166 62.6758585 20.9897979 62.1325662 20.4466177 61.589386 19.9034376 61.1876415 19.3262456 60.9273326 18.7151539 60.7609774 18.32441 60.6431144 17.9615041 60.5738558 17.6262119 60.5347927 17.4371821 60.6388489 17.0613674 61.0660742 16.9852616 62.4889615 16.7318 63.5810465 16.5382801 64.3421048 16.4048143 64.7213992 16.3382498 64.9278279 16.6632149 64.9808101 16.8418055M50.5127209 17.9600673C48.0329953 17.9600673 46.0227012 15.9497733 46.0227012 13.4700477 46.0227012 10.9903221 48.0329953 8.98002804 50.5127209 8.98002804 52.9924465 8.98002804 55.0027405 10.9903221 55.0027405 13.4700477 55.0027405 15.9497733 52.9924465 17.9600673 50.5127209 17.9600673M58.9315077-.0000112250488L57.2477503-.0000112250488C56.0078314-.0000112250488 55.0027405 1.00507967 55.0027405 2.24499859L55.0027405 5.69142541C53.681889 4.92733632 52.148435 4.49000841 50.5127209 4.49000841 47.1862898 4.49000841 44.2823696 6.29858832 42.7305066 8.98608957 43.4008665 10.3371365 43.7776914 11.8595899 43.7776914 13.4700477 43.7776914 15.0805055 43.4008665 16.6029589 42.7305066 17.9540058 44.2823696 20.641507 47.1862898 22.4500869 50.5127209 22.4500869 52.148435 22.4500869 53.681889 22.012759 55.0027405 21.2486699L55.0027405 21.8888345C55.0027405 22.1987581 55.2540694 22.4500869 55.563993 22.4500869L58.9315077 22.4500869C59.2414313 22.4500869 59.4927601 22.1987581 59.4927601 21.8888345L59.4927601.561241229C59.4927601.251317624 59.2414313-.0000112250488 58.9315077-.0000112250488M25.9298634 17.954017C26.6001111 16.6029701 26.9770482 15.0805167 26.9770482 13.4700589 26.9770482 11.8596011 26.6001111 10.3371477 25.9298634 8.98610079 27.4817264 6.29859954 30.3856466 4.49001963 33.7120777 4.49001963 38.6715288 4.49001963 42.6921169 8.51049546 42.6921169 13.4700589 42.6921169 18.4296223 38.6715288 22.4500982 33.7120777 22.4500982 30.3856466 22.4500982 27.4817264 20.6415183 25.9298634 17.954017M33.7120777 17.9600785C36.1918033 17.9600785 38.2020973 15.9497845 38.2020973 13.4700589 38.2020973 10.9902211 36.1918033 8.98003927 33.7120777 8.98003927 31.2322398 8.98003927 29.222058 10.9902211 29.222058 13.4700589 29.222058 15.9497845 31.2322398 17.9600785 33.7120777 17.9600785"/>
    <path d="M14.5925638 13.4700589C14.5925638 10.9903333 16.6028578 8.98003927 19.0825834 8.98003927 21.562309 8.98003927 23.5726031 10.9903333 23.5726031 13.4700589 23.5726031 15.9497845 21.562309 17.9600785 19.0825834 17.9600785 16.6028578 17.9600785 14.5925638 15.9497845 14.5925638 13.4700589zM10.1025442 13.4700589C10.1025442 18.4296223 14.12302 22.4500982 19.0825834 22.4500982 22.3889591 22.4500982 27.253147 19.4567517 33.6751473 13.4700589 27.253147 7.48336606 22.3889591 4.49001963 19.0825834 4.49001963 14.12302 4.49001963 10.1025442 8.51049546 10.1025442 13.4700589zM.561252454 22.4500869L2.24500982 22.4500869C3.48492874 22.4500869 4.49001963 21.444996 4.49001963 20.2050771L4.49001963 13.4700477 8.98003927 13.4700477C8.98003927 11.8572326 9.35798667 10.3326465 10.0301426 8.98002804L4.49001963 8.98002804C4.49001963 6.50030245 6.50031367 4.49000841 8.98003927 4.49000841L10.6637966 4.49000841C10.9737202 4.49000841 11.2250491 4.23867956 11.2250491 3.92875595L11.2250491.561241229C11.2250491.251317624 10.9737202-.0000112250488 10.6637966-.0000112250488L8.98003927-.0000112250488C4.09557141-.0000112250488.121904033 3.89968308.00269401178 8.75552706L0 8.75552706 0 21.8888345C0 22.1987581.251328849 22.4500869.561252454 22.4500869M90.3597032 4.49001963L88.6759458 4.49001963C87.4360269 4.49001963 86.430936 5.49511053 86.430936 6.73502945L86.430936 13.4700589C86.430936 15.9497845 85.3404225 17.9600785 83.0260419 17.9600785 80.711549 17.9600785 79.6959066 15.9497845 79.6959066 13.4700589L79.6959066 5.05127209C79.6959066 4.74134848 79.4445777 4.49001963 79.1346541 4.49001963L77.4508967 4.49001963C76.2109778 4.49001963 75.2058869 5.49511053 75.2058869 6.73502945L75.2058869 13.4700589C75.2058869 18.4296223 78.3970561 22.4500982 83.0260419 22.4500982 84.2721346 22.4500982 85.4194468 22.1586959 86.430936 21.6360576L86.430936 22.4500982C86.430936 24.9298238 84.3874158 26.9401178 81.9076902 26.9401178 80.8378308 26.9401178 79.8593433 26.5658747 79.0879579 25.9412007 78.9743604 25.8492675 78.6548955 25.7495891 78.3863923 25.9859886 77.7617184 26.5356793 76.5155134 27.6342748 75.8461637 28.2253859 75.6111112 28.4330493 75.5719358 28.8216605 75.8461637 29.0728771 77.443825 30.5360623 79.5705228 31.4301374 81.9076902 31.4301374 86.8672537 31.4301374 90.9209556 27.4096616 90.9209556 22.4500982L90.9209556 5.05127209C90.9209556 4.74134848 90.6696268 4.49001963 90.3597032 4.49001963"/>
  </g>
</svg>
